<svg width="238" height="50" viewBox="0 0 238 50" fill="none" xmlns="http://www.w3.org/2000/svg">
<g clip-path="url(#clip0_7923_51683)">
<path d="M66.174 22.3564H77.237V13.4731H79.6303V35.3362H77.237V24.6505H66.174V35.3362H63.7788V13.4731H66.174V22.3564Z" fill="#102396"/>
<path d="M86.1619 24.4222C86.1619 17.8992 91.1763 13.1123 97.3865 13.1123C103.597 13.1123 108.611 17.8992 108.611 24.4222C108.611 30.9121 103.63 35.7302 97.3865 35.7302C91.1432 35.7302 86.1619 30.9121 86.1619 24.4222ZM88.6195 24.4222C88.6195 29.4373 92.5337 33.4436 97.3865 33.4436C102.239 33.4436 106.153 29.4447 106.153 24.4222C106.153 19.3997 102.239 15.4008 97.3865 15.4008C92.5337 15.4008 88.6195 19.407 88.6195 24.4222Z" fill="#102396"/>
<path d="M117.417 13.4731V33.0422H123.37V35.3362H115.023V13.4731H117.417Z" fill="#102396"/>
<path d="M127.772 24.4222C127.772 17.8992 132.787 13.1123 138.997 13.1123C145.207 13.1123 150.222 17.8992 150.222 24.4222C150.222 30.9121 145.24 35.7302 138.997 35.7302C132.754 35.7302 127.772 30.9121 127.772 24.4222ZM130.23 24.4222C130.23 29.4373 134.144 33.4436 138.997 33.4436C143.85 33.4436 147.762 29.4447 147.762 24.4222C147.762 19.3997 143.85 15.4008 138.997 15.4008C134.144 15.4008 130.228 19.407 130.228 24.4222H130.23Z" fill="#102396"/>
<path d="M173.077 18.2913C172.256 17.4662 171.305 16.782 170.263 16.2661C169.097 15.7231 167.829 15.4332 166.543 15.4155C161.562 15.4155 157.874 19.4788 157.874 24.5271C157.874 30.4592 162.629 33.4436 166.576 33.4436C167.974 33.4252 169.348 33.0771 170.586 32.4273C171.508 31.9491 172.349 31.3277 173.077 30.5862V33.6001C171.186 34.9749 168.912 35.72 166.576 35.7302C160.172 35.7302 155.416 30.8126 155.416 24.4866C155.416 17.9636 160.236 13.1123 166.705 13.1123C169.014 13.0831 171.263 13.8486 173.077 15.2811V18.2913Z" fill="#102396"/>
<path d="M192.411 15.7672H183.613V22.2589H192.152V24.5529H183.613V33.0422H192.411V35.3362H181.218V13.4731H192.411V15.7672Z" fill="#102396"/>
<path d="M237.897 15.7672H229.099V22.2589H237.64V24.5529H229.099V33.0422H237.897V35.3362H226.706V13.4731H237.897V15.7672Z" fill="#102396"/>
<path d="M218.774 13.4731H216.381V30.4205L201.13 13.8395H199.922V35.3362H202.315V18.5214L217.535 35.0048H218.774V13.4731Z" fill="#102396"/>
<path d="M10.6956 49.4317H1.28575C0.944749 49.4317 0.617713 49.2959 0.376588 49.0542C0.135463 48.8125 0 48.4847 0 48.1429L0 38.7128C0 38.371 0.135463 38.0432 0.376588 37.8015C0.617713 37.5598 0.944749 37.424 1.28575 37.424H10.6956C11.0366 37.424 11.3637 37.5598 11.6048 37.8015C11.8459 38.0432 11.9814 38.371 11.9814 38.7128V48.1429C11.9814 48.4847 11.8459 48.8125 11.6048 49.0542C11.3637 49.2959 11.0366 49.4317 10.6956 49.4317Z" fill="#1D1D8C"/>
<path d="M10.6956 11.9193H1.28575C0.944749 11.9193 0.617713 11.7835 0.376588 11.5418C0.135463 11.3001 0 10.9723 0 10.6305L0 1.19856C0 0.856757 0.135463 0.528953 0.376588 0.287262C0.617713 0.0455707 0.944749 -0.09021 1.28575 -0.09021H10.6956C11.0366 -0.09021 11.3637 0.0455707 11.6048 0.287262C11.8459 0.528953 11.9814 0.856757 11.9814 1.19856V10.6287C11.9814 10.9705 11.8459 11.2983 11.6048 11.54C11.3637 11.7817 11.0366 11.9174 10.6956 11.9174" fill="#1D1D8C"/>
<path d="M18.2558 -0.09021H27.6639C28.0049 -0.09021 28.3319 0.0455707 28.573 0.287262C28.8142 0.528953 28.9496 0.856757 28.9496 1.19856V10.6287C28.9496 10.9705 28.8142 11.2983 28.573 11.54C28.3319 11.7817 28.0049 11.9174 27.6639 11.9174H18.2558C17.9148 11.9174 17.5878 11.7817 17.3467 11.54C17.1056 11.2983 16.9701 10.9705 16.9701 10.6287V1.19856C16.9701 0.856757 17.1056 0.528953 17.3467 0.287262C17.5878 0.0455707 17.9148 -0.09021 18.2558 -0.09021Z" fill="#FF8438"/>
<path d="M18.2558 37.4222H27.6639C28.0049 37.4222 28.3319 37.558 28.573 37.7997C28.8142 38.0413 28.9496 38.3691 28.9496 38.7109V48.1411C28.9496 48.4829 28.8142 48.8107 28.573 49.0524C28.3319 49.2941 28.0049 49.4298 27.6639 49.4298H18.2558C17.9148 49.4298 17.5878 49.2941 17.3467 49.0524C17.1056 48.8107 16.9701 48.4829 16.9701 48.1411V38.7128C16.9699 38.5434 17.0029 38.3756 17.0674 38.219C17.1319 38.0625 17.2266 37.9202 17.346 37.8003C17.4654 37.6804 17.6073 37.5853 17.7634 37.5205C17.9195 37.4556 18.0868 37.4222 18.2558 37.4222Z" fill="#FF8438"/>
<path d="M1.28575 30.4279C0.944749 30.4279 0.617713 30.2921 0.376588 30.0504C0.135463 29.8087 0 29.4809 0 29.1391L0 38.7128C0 38.371 0.135463 38.0432 0.376588 37.8015C0.617713 37.5598 0.944749 37.424 1.28575 37.424H10.6956C11.0366 37.424 11.3637 37.5598 11.6048 37.8015C11.8459 38.0432 11.9814 38.371 11.9814 38.7128V30.4279H1.28575Z" fill="url(#paint0_linear_7923_51683)"/>
<path d="M10.6938 37.4222H1.28575C0.944749 37.4222 0.617713 37.558 0.376588 37.7997C0.135463 38.0413 0 38.3691 0 38.7109L0 48.1411C0 48.4829 0.135463 48.8107 0.376588 49.0524C0.617713 49.2941 0.944749 49.4298 1.28575 49.4298H10.6938C11.0348 49.4298 11.3618 49.2941 11.6029 49.0524C11.8441 48.8107 11.9795 48.4829 11.9795 48.1411V38.7128C11.9795 38.371 11.8441 38.0432 11.6029 37.8015C11.3618 37.5598 11.0348 37.424 10.6938 37.424" fill="url(#paint1_linear_7923_51683)"/>
<path d="M10.6956 37.4222H1.28575C0.944749 37.4222 0.617713 37.558 0.376588 37.7997C0.135463 38.0413 0 38.3691 0 38.7109L0 48.1411C0 48.4829 0.135463 48.8107 0.376588 49.0524C0.617713 49.2941 0.944749 49.4298 1.28575 49.4298H10.6956C11.0366 49.4298 11.3637 49.2941 11.6048 49.0524C11.8459 48.8107 11.9814 48.4829 11.9814 48.1411V38.7128C11.9814 38.371 11.8459 38.0432 11.6048 37.8015C11.3637 37.5598 11.0366 37.424 10.6956 37.424" fill="url(#paint2_linear_7923_51683)"/>
<path d="M10.6956 -0.09021H1.28575C0.944749 -0.09021 0.617713 0.0455707 0.376588 0.287262C0.135463 0.528953 0 0.856757 0 1.19856L0 10.6287C0 10.9705 0.135463 11.2983 0.376588 11.54C0.617713 11.7817 0.944749 11.9174 1.28575 11.9174H10.6956C11.0366 11.9174 11.3637 11.7817 11.6048 11.54C11.8459 11.2983 11.9814 10.9705 11.9814 10.6287V1.19856C11.9814 0.856757 11.8459 0.528953 11.6048 0.287262C11.3637 0.0455707 11.0366 -0.09021 10.6956 -0.09021Z" fill="url(#paint3_linear_7923_51683)"/>
<path d="M1.28575 18.411H11.9814V10.6287C11.9814 10.9705 11.8459 11.2983 11.6048 11.54C11.3637 11.7817 11.0366 11.9174 10.6956 11.9174H1.28575C0.944749 11.9174 0.617713 11.7817 0.376588 11.54C0.135463 11.2983 0 10.9705 0 10.6287L0 19.6998C0 19.358 0.135463 19.0302 0.376588 18.7885C0.617713 18.5468 0.944749 18.411 1.28575 18.411Z" fill="url(#paint4_linear_7923_51683)"/>
<path d="M18.2558 18.411H27.6639C28.0049 18.411 28.3319 18.5468 28.573 18.7885C28.8142 19.0302 28.9496 19.358 28.9496 19.6998V29.1299C28.9496 29.4717 28.8142 29.7995 28.573 30.0412C28.3319 30.2829 28.0049 30.4187 27.6639 30.4187H18.2558C17.9148 30.4187 17.5878 30.2829 17.3467 30.0412C17.1056 29.7995 16.9701 29.4717 16.9701 29.1299V19.6998C16.9701 19.358 17.1056 19.0302 17.3467 18.7885C17.5878 18.5468 17.9148 18.411 18.2558 18.411Z" fill="#0055FF"/>
<path d="M35.2259 18.411H44.634C44.975 18.411 45.302 18.5468 45.5431 18.7885C45.7843 19.0302 45.9197 19.358 45.9197 19.6998V29.1299C45.9197 29.4717 45.7843 29.7995 45.5431 30.0412C45.302 30.2829 44.975 30.4187 44.634 30.4187H35.2259C34.8849 30.4187 34.5579 30.2829 34.3168 30.0412C34.0756 29.7995 33.9402 29.4717 33.9402 29.1299V19.6998C33.9402 19.358 34.0756 19.0302 34.3168 18.7885C34.5579 18.5468 34.8849 18.411 35.2259 18.411Z" fill="url(#paint5_linear_7923_51683)"/>
<path d="M1.28575 18.411H10.6956C11.0366 18.411 11.3637 18.5468 11.6048 18.7885C11.8459 19.0302 11.9814 19.358 11.9814 19.6998V29.1299C11.9814 29.4717 11.8459 29.7995 11.6048 30.0412C11.3637 30.2829 11.0366 30.4187 10.6956 30.4187H1.28575C0.944749 30.4187 0.617713 30.2829 0.376588 30.0412C0.135463 29.7995 0 29.4717 0 29.1299L0 19.6998C0 19.358 0.135463 19.0302 0.376588 18.7885C0.617713 18.5468 0.944749 18.411 1.28575 18.411Z" fill="url(#paint6_linear_7923_51683)"/>
<path d="M33.9383 29.1373V19.6998C33.9383 19.358 34.0738 19.0302 34.3149 18.7885C34.556 18.5468 34.883 18.411 35.224 18.411H27.6638C28.0048 18.411 28.3319 18.5468 28.573 18.7885C28.8141 19.0302 28.9496 19.358 28.9496 19.6998V29.1299C28.9496 29.4717 28.8141 29.7995 28.573 30.0412C28.3319 30.2829 28.0048 30.4187 27.6638 30.4187H35.2259C34.8858 30.4192 34.5594 30.2846 34.3181 30.0444C34.0768 29.8043 33.9402 29.4781 33.9383 29.1373Z" fill="url(#paint7_linear_7923_51683)"/>
<path d="M11.9813 19.6998V29.1299C11.9813 29.4717 11.8458 29.7995 11.6047 30.0412C11.3636 30.2829 11.0366 30.4187 10.6956 30.4187H18.2558C17.9148 30.4187 17.5877 30.2829 17.3466 30.0412C17.1055 29.7995 16.97 29.4717 16.97 29.1299V19.6998C16.97 19.358 17.1055 19.0302 17.3466 18.7885C17.5877 18.5468 17.9148 18.411 18.2558 18.411H10.6956C11.0366 18.411 11.3636 18.5468 11.6047 18.7885C11.8458 19.0302 11.9813 19.358 11.9813 19.6998Z" fill="url(#paint8_linear_7923_51683)"/>
<path d="M1.28575 18.411H11.9814V10.6287C11.9814 10.9705 11.8459 11.2983 11.6048 11.54C11.3637 11.7817 11.0366 11.9174 10.6956 11.9174H1.28575C0.944749 11.9174 0.617713 11.7817 0.376588 11.54C0.135463 11.2983 0 10.9705 0 10.6287L0 19.6998C0 19.358 0.135463 19.0302 0.376588 18.7885C0.617713 18.5468 0.944749 18.411 1.28575 18.411Z" fill="url(#paint9_linear_7923_51683)"/>
<path d="M44.634 30.4279H33.9384V38.7128C33.9384 38.371 34.0738 38.0432 34.3149 37.8015C34.5561 37.5598 34.8831 37.424 35.2241 37.424H44.634C44.975 37.424 45.302 37.5598 45.5431 37.8015C45.7843 38.0432 45.9197 38.371 45.9197 38.7128V29.1391C45.9197 29.4809 45.7843 29.8087 45.5431 30.0504C45.302 30.2921 44.975 30.4279 44.634 30.4279Z" fill="url(#paint10_linear_7923_51683)"/>
<path d="M44.634 18.411H33.9384V10.6287C33.9384 10.9705 34.0738 11.2983 34.3149 11.54C34.5561 11.7817 34.8831 11.9174 35.2241 11.9174H44.634C44.975 11.9174 45.302 11.7817 45.5431 11.54C45.7843 11.2983 45.9197 10.9705 45.9197 10.6287V19.6998C45.9197 19.358 45.7843 19.0302 45.5431 18.7885C45.302 18.5468 44.975 18.411 44.634 18.411Z" fill="url(#paint11_linear_7923_51683)"/>
<path d="M10.6956 49.4317H1.28575C0.944749 49.4317 0.617713 49.2959 0.376588 49.0542C0.135463 48.8125 0 48.4847 0 48.1429L0 38.7128C0 38.371 0.135463 38.0432 0.376588 37.8015C0.617713 37.5598 0.944749 37.424 1.28575 37.424H10.6956C11.0366 37.424 11.3637 37.5598 11.6048 37.8015C11.8459 38.0432 11.9814 38.371 11.9814 38.7128V48.1429C11.9814 48.4847 11.8459 48.8125 11.6048 49.0542C11.3637 49.2959 11.0366 49.4317 10.6956 49.4317Z" fill="#1D1D8C"/>
<path d="M10.6956 11.9193H1.28575C0.944749 11.9193 0.617713 11.7835 0.376588 11.5418C0.135463 11.3001 0 10.9723 0 10.6305L0 1.19856C0 0.856757 0.135463 0.528953 0.376588 0.287262C0.617713 0.0455707 0.944749 -0.09021 1.28575 -0.09021H10.6956C11.0366 -0.09021 11.3637 0.0455707 11.6048 0.287262C11.8459 0.528953 11.9814 0.856757 11.9814 1.19856V10.6287C11.9814 10.9705 11.8459 11.2983 11.6048 11.54C11.3637 11.7817 11.0366 11.9174 10.6956 11.9174" fill="#1D1D8C"/>
<path d="M10.6938 30.4279H0V38.7128C0 38.371 0.135463 38.0432 0.376588 37.8015C0.617713 37.5598 0.944749 37.424 1.28575 37.424H10.6938C11.0348 37.424 11.3618 37.5598 11.6029 37.8015C11.8441 38.0432 11.9795 38.371 11.9795 38.7128V29.1391C11.9795 29.4809 11.8441 29.8087 11.6029 30.0504C11.3618 30.2921 11.0348 30.4279 10.6938 30.4279Z" fill="url(#paint12_linear_7923_51683)"/>
<path d="M1.28575 30.4279C0.944749 30.4279 0.617713 30.2921 0.376588 30.0504C0.135463 29.8087 0 29.4809 0 29.1391L0 38.7128C0 38.371 0.135463 38.0432 0.376588 37.8015C0.617713 37.5598 0.944749 37.424 1.28575 37.424H10.6956C11.0366 37.424 11.3637 37.5598 11.6048 37.8015C11.8459 38.0432 11.9814 38.371 11.9814 38.7128V30.4279H1.28575Z" fill="url(#paint13_linear_7923_51683)"/>
<path d="M10.6938 37.4222H1.28575C0.944749 37.4222 0.617713 37.558 0.376588 37.7997C0.135463 38.0413 0 38.3691 0 38.7109L0 48.1411C0 48.4829 0.135463 48.8107 0.376588 49.0524C0.617713 49.2941 0.944749 49.4298 1.28575 49.4298H10.6938C11.0348 49.4298 11.3618 49.2941 11.6029 49.0524C11.8441 48.8107 11.9795 48.4829 11.9795 48.1411V38.7128C11.9795 38.371 11.8441 38.0432 11.6029 37.8015C11.3618 37.5598 11.0348 37.424 10.6938 37.424" fill="url(#paint14_linear_7923_51683)"/>
<path d="M10.6956 37.4222H1.28575C0.944749 37.4222 0.617713 37.558 0.376588 37.7997C0.135463 38.0413 0 38.3691 0 38.7109L0 48.1411C0 48.4829 0.135463 48.8107 0.376588 49.0524C0.617713 49.2941 0.944749 49.4298 1.28575 49.4298H10.6956C11.0366 49.4298 11.3637 49.2941 11.6048 49.0524C11.8459 48.8107 11.9814 48.4829 11.9814 48.1411V38.7128C11.9814 38.371 11.8459 38.0432 11.6048 37.8015C11.3637 37.5598 11.0366 37.424 10.6956 37.424" fill="url(#paint15_linear_7923_51683)"/>
<path d="M10.6956 -0.09021H1.28575C0.944749 -0.09021 0.617713 0.0455707 0.376588 0.287262C0.135463 0.528953 0 0.856757 0 1.19856L0 10.6287C0 10.9705 0.135463 11.2983 0.376588 11.54C0.617713 11.7817 0.944749 11.9174 1.28575 11.9174H10.6956C11.0366 11.9174 11.3637 11.7817 11.6048 11.54C11.8459 11.2983 11.9814 10.9705 11.9814 10.6287V1.19856C11.9814 0.856757 11.8459 0.528953 11.6048 0.287262C11.3637 0.0455707 11.0366 -0.09021 10.6956 -0.09021Z" fill="url(#paint16_linear_7923_51683)"/>
<path d="M44.634 49.4317H35.2259C34.8849 49.4317 34.5579 49.2959 34.3168 49.0542C34.0756 48.8125 33.9402 48.4847 33.9402 48.1429V38.7128C33.9402 38.371 34.0756 38.0432 34.3168 37.8015C34.5579 37.5598 34.8849 37.424 35.2259 37.424H44.634C44.975 37.424 45.302 37.5598 45.5431 37.8015C45.7843 38.0432 45.9197 38.371 45.9197 38.7128V48.1429C45.9197 48.4847 45.7843 48.8125 45.5431 49.0542C45.302 49.2959 44.975 49.4317 44.634 49.4317Z" fill="#1D1D8C"/>
<path d="M44.634 11.9193H35.2259C34.8849 11.9193 34.5579 11.7835 34.3168 11.5418C34.0756 11.3001 33.9402 10.9723 33.9402 10.6305V1.19856C33.9402 0.856757 34.0756 0.528953 34.3168 0.287262C34.5579 0.0455707 34.8849 -0.09021 35.2259 -0.09021H44.634C44.975 -0.09021 45.302 0.0455707 45.5431 0.287262C45.7843 0.528953 45.9197 0.856757 45.9197 1.19856V10.6287C45.9197 10.9705 45.7843 11.2983 45.5431 11.54C45.302 11.7817 44.975 11.9174 44.634 11.9174" fill="#1D1D8C"/>
<path d="M44.634 37.4222H35.2241C34.8831 37.4222 34.5561 37.558 34.3149 37.7997C34.0738 38.0413 33.9384 38.3691 33.9384 38.7109V48.1411C33.9384 48.4829 34.0738 48.8107 34.3149 49.0524C34.5561 49.2941 34.8831 49.4298 35.2241 49.4298H44.634C44.975 49.4298 45.302 49.2941 45.5431 49.0524C45.7843 48.8107 45.9197 48.4829 45.9197 48.1411V38.7128C45.9197 38.371 45.7843 38.0432 45.5431 37.8015C45.302 37.5598 44.975 37.424 44.634 37.424" fill="url(#paint17_linear_7923_51683)"/>
<path d="M44.634 37.4222H35.2259C34.8849 37.4222 34.5579 37.558 34.3168 37.7997C34.0756 38.0413 33.9402 38.3691 33.9402 38.7109V48.1411C33.9402 48.4829 34.0756 48.8107 34.3168 49.0524C34.5579 49.2941 34.8849 49.4298 35.2259 49.4298H44.634C44.975 49.4298 45.302 49.2941 45.5431 49.0524C45.7843 48.8107 45.9197 48.4829 45.9197 48.1411V38.7128C45.9197 38.371 45.7843 38.0432 45.5431 37.8015C45.302 37.5598 44.975 37.424 44.634 37.424" fill="url(#paint18_linear_7923_51683)"/>
<path d="M44.634 -0.09021H35.2259C34.8849 -0.09021 34.5579 0.0455707 34.3168 0.287262C34.0756 0.528953 33.9402 0.856757 33.9402 1.19856V10.6287C33.9402 10.9705 34.0756 11.2983 34.3168 11.54C34.5579 11.7817 34.8849 11.9174 35.2259 11.9174H44.634C44.975 11.9174 45.302 11.7817 45.5431 11.54C45.7843 11.2983 45.9197 10.9705 45.9197 10.6287V1.19856C45.9197 0.856757 45.7843 0.528953 45.5431 0.287262C45.302 0.0455707 44.975 -0.09021 44.634 -0.09021Z" fill="url(#paint19_linear_7923_51683)"/>
</g>
<defs>
<linearGradient id="paint0_linear_7923_51683" x1="6.39246" y1="22.1984" x2="6.39246" y2="34.1212" gradientUnits="userSpaceOnUse">
<stop stop-color="#DCECFF"/>
<stop offset="1" stop-color="#7FAAFF"/>
</linearGradient>
<linearGradient id="paint1_linear_7923_51683" x1="5.43689" y1="22.1983" x2="5.43689" y2="34.1212" gradientUnits="userSpaceOnUse">
<stop stop-color="#0E0E8C"/>
<stop offset="1" stop-color="#0E0E8C"/>
</linearGradient>
<linearGradient id="paint2_linear_7923_51683" x1="352629" y1="1.07689e+06" x2="352629" y2="1.07611e+06" gradientUnits="userSpaceOnUse">
<stop stop-color="#0E0E8C"/>
<stop offset="1" stop-color="#0E0E8C"/>
</linearGradient>
<linearGradient id="paint3_linear_7923_51683" x1="353296" y1="1.07689e+06" x2="353296" y2="1.07611e+06" gradientUnits="userSpaceOnUse">
<stop stop-color="#0E0E8C"/>
<stop offset="1" stop-color="#0E0E8C"/>
</linearGradient>
<linearGradient id="paint4_linear_7923_51683" x1="265361" y1="1.07689e+06" x2="265361" y2="1.07611e+06" gradientUnits="userSpaceOnUse">
<stop stop-color="#DCECFF"/>
<stop offset="1" stop-color="#7FAAFF"/>
</linearGradient>
<linearGradient id="paint5_linear_7923_51683" x1="33.9383" y1="24.4222" x2="45.9197" y2="24.4222" gradientUnits="userSpaceOnUse">
<stop stop-color="#133AC6"/>
<stop offset="1" stop-color="#082AC6"/>
</linearGradient>
<linearGradient id="paint6_linear_7923_51683" x1="0" y1="1611.23" x2="781.545" y2="1611.23" gradientUnits="userSpaceOnUse">
<stop stop-color="#133AC6"/>
<stop offset="1" stop-color="#082AC6"/>
</linearGradient>
<linearGradient id="paint7_linear_7923_51683" x1="-2.33159e+06" y1="1.15106e+06" x2="-2.32937e+06" y2="1.15106e+06" gradientUnits="userSpaceOnUse">
<stop stop-color="#DCECFF"/>
<stop offset="1" stop-color="#7FAAFF"/>
</linearGradient>
<linearGradient id="paint8_linear_7923_51683" x1="-2.33217e+06" y1="1.15106e+06" x2="-2.32996e+06" y2="1.15106e+06" gradientUnits="userSpaceOnUse">
<stop stop-color="#DCECFF"/>
<stop offset="1" stop-color="#7FAAFF"/>
</linearGradient>
<linearGradient id="paint9_linear_7923_51683" x1="265361" y1="1.07689e+06" x2="265361" y2="1.07611e+06" gradientUnits="userSpaceOnUse">
<stop stop-color="#DCECFF"/>
<stop offset="1" stop-color="#7FAAFF"/>
</linearGradient>
<linearGradient id="paint10_linear_7923_51683" x1="-154426" y1="-900153" x2="-154426" y2="-899375" gradientUnits="userSpaceOnUse">
<stop stop-color="#DCECFF"/>
<stop offset="1" stop-color="#7FAAFF"/>
</linearGradient>
<linearGradient id="paint11_linear_7923_51683" x1="-298456" y1="1.07628e+06" x2="-298456" y2="1.0755e+06" gradientUnits="userSpaceOnUse">
<stop stop-color="#DCECFF"/>
<stop offset="1" stop-color="#7FAAFF"/>
</linearGradient>
<linearGradient id="paint12_linear_7923_51683" x1="-156191" y1="-900620" x2="-156191" y2="-899842" gradientUnits="userSpaceOnUse">
<stop stop-color="#DCECFF"/>
<stop offset="1" stop-color="#7FAAFF"/>
</linearGradient>
<linearGradient id="paint13_linear_7923_51683" x1="6.39246" y1="22.1984" x2="6.39246" y2="34.1212" gradientUnits="userSpaceOnUse">
<stop stop-color="#DCECFF"/>
<stop offset="1" stop-color="#7FAAFF"/>
</linearGradient>
<linearGradient id="paint14_linear_7923_51683" x1="5.43689" y1="22.1983" x2="5.43689" y2="34.1212" gradientUnits="userSpaceOnUse">
<stop stop-color="#0E0E8C"/>
<stop offset="1" stop-color="#0E0E8C"/>
</linearGradient>
<linearGradient id="paint15_linear_7923_51683" x1="352629" y1="1.07689e+06" x2="352629" y2="1.07611e+06" gradientUnits="userSpaceOnUse">
<stop stop-color="#0E0E8C"/>
<stop offset="1" stop-color="#0E0E8C"/>
</linearGradient>
<linearGradient id="paint16_linear_7923_51683" x1="353296" y1="1.07689e+06" x2="353296" y2="1.07611e+06" gradientUnits="userSpaceOnUse">
<stop stop-color="#0E0E8C"/>
<stop offset="1" stop-color="#0E0E8C"/>
</linearGradient>
<linearGradient id="paint17_linear_7923_51683" x1="-51124.3" y1="-11098.4" x2="-51080.9" y2="-11098.4" gradientUnits="userSpaceOnUse">
<stop stop-color="#0E0E8C"/>
<stop offset="1" stop-color="#0E0E8C"/>
</linearGradient>
<linearGradient id="paint18_linear_7923_51683" x1="354843" y1="1.07611e+06" x2="354843" y2="1.07534e+06" gradientUnits="userSpaceOnUse">
<stop stop-color="#0E0E8C"/>
<stop offset="1" stop-color="#0E0E8C"/>
</linearGradient>
<linearGradient id="paint19_linear_7923_51683" x1="355510" y1="1.07611e+06" x2="355510" y2="1.07534e+06" gradientUnits="userSpaceOnUse">
<stop stop-color="#0E0E8C"/>
<stop offset="1" stop-color="#0E0E8C"/>
</linearGradient>
<clipPath id="clip0_7923_51683">
<rect width="238" height="49.3415" fill="white"/>
</clipPath>
</defs>
</svg>
